# xmcd
#
# Track frame offsets:
# 150
# 15143
# 31629
# 48856
# 69578
# 90540
# 109083
# 123432
# 140310
# 164003
# 180288
# 197419
#
# Disc length: 2825 seconds
#
#
# Revision: 0
# Processed by: cddbd v1.5.1PL0 Copyright (c) Steve Scherf et al.
# Submitted via: FreeRIP 2.60 
#
DISCID=890b070c
DTITLE=Emmanuel - 
DYEAR=1900
DGENRE=R&B
TTITLE0=a
TTITLE1=b
TTITLE2=c
TTITLE3=d
TTITLE4=e
TTITLE5=f
TTITLE6=g
TTITLE7=h
TTITLE8=i
TTITLE9=j
TTITLE10=k
TTITLE11=l
EXTD=
EXTT0=
EXTT1=
EXTT2=
EXTT3=
EXTT4=
EXTT5=
EXTT6=
EXTT7=
EXTT8=
EXTT9=
EXTT10=
EXTT11=
PLAYORDER=
